<svg viewBox="0 0 86 21" xmlns="http://www.w3.org/2000/svg">
  <path
    d="M15.6729 6.89979L13.3003 16.1074H11.3194L8.70734 7.35691L6.07347 16.1074H4.26678L1.91589 6.89979C1.82882 6.56603 1.75627 6.33384 1.69822 6.20324C1.65468 6.05812 1.59664 5.96379 1.52408 5.92026C1.45152 5.87672 1.34268 5.8477 1.19757 5.83319L0.000358498 5.68082V5.07133H5.7905V5.68082L4.59329 5.83319C4.3611 5.86221 4.2305 5.92751 4.20147 6.0291C4.17245 6.11617 4.22324 6.4064 4.35385 6.89979L6.05171 13.4518L8.55496 5.07133H10.4705L13.0608 13.8218L14.824 6.89979C14.9546 6.4064 15.0054 6.11617 14.9764 6.0291C14.9473 5.92751 14.8167 5.86221 14.5845 5.83319L13.3873 5.68082V5.07133H17.5885V5.68082L16.3912 5.83319C16.2461 5.8477 16.1373 5.87672 16.0647 5.92026C15.9922 5.96379 15.9269 6.05812 15.8688 6.20324C15.8253 6.33384 15.76 6.56603 15.6729 6.89979ZM27.2415 13.5171C26.9803 14.5329 26.4941 15.2585 25.783 15.6938C25.072 16.1147 24.2448 16.3251 23.3016 16.3251C21.5602 16.3251 20.2541 15.8244 19.3834 14.8231C18.5127 13.8073 18.0774 12.465 18.0774 10.7962V10.3608C18.0774 8.69198 18.4837 7.35691 19.2963 6.35561C20.1235 5.35431 21.3135 4.85365 22.8662 4.85365C23.7369 4.85365 24.506 5.02779 25.1736 5.37607C25.8556 5.70984 26.3853 6.19598 26.7626 6.83449C27.1544 7.473 27.3503 8.24938 27.3503 9.16361C27.3503 9.38128 27.3358 9.61347 27.3068 9.86017C27.2923 10.1069 27.256 10.3536 27.1979 10.6003H20.7548V11.2315C20.7548 12.7697 20.9724 13.8799 21.4078 14.5619C21.8431 15.2295 22.5469 15.5632 23.5192 15.5632C24.1432 15.5632 24.6729 15.3818 25.1083 15.019C25.5436 14.6417 25.7903 14.0105 25.8483 13.1253L27.2415 13.5171ZM22.8662 5.61551C22.1551 5.61551 21.6255 5.94203 21.2772 6.59505C20.9289 7.24807 20.7548 8.32919 20.7548 9.8384H24.6947C24.7527 9.54817 24.789 9.2797 24.8035 9.033C24.8325 8.77179 24.847 8.53235 24.847 8.31468C24.847 7.38593 24.6656 6.70389 24.3029 6.26854C23.9401 5.83319 23.4612 5.61551 22.8662 5.61551ZM28.7934 0.609004V-0.000484522H32.9728V14.279C32.9728 14.7724 32.9945 15.0698 33.0381 15.1714C33.0816 15.2585 33.2195 15.3165 33.4516 15.3456L34.6489 15.4979V16.1074H28.7934V15.4979L29.9906 15.3456C30.2228 15.3165 30.3607 15.2585 30.4042 15.1714C30.4477 15.0698 30.4695 14.7724 30.4695 14.279V1.82798C30.4695 1.33458 30.4477 1.04435 30.4042 0.957282C30.3607 0.855701 30.2228 0.790399 29.9906 0.761375L28.7934 0.609004ZM35.3406 0.609004V-0.000484522H39.52V14.279C39.52 14.7724 39.5418 15.0698 39.5853 15.1714C39.6288 15.2585 39.7667 15.3165 39.9989 15.3456L41.1961 15.4979V16.1074H35.3406V15.4979L36.5379 15.3456C36.77 15.3165 36.9079 15.2585 36.9514 15.1714C36.995 15.0698 37.0167 14.7724 37.0167 14.279V1.82798C37.0167 1.33458 36.995 1.04435 36.9514 0.957282C36.9079 0.855701 36.77 0.790399 36.5379 0.761375L35.3406 0.609004ZM47.5257 15.5632C48.3964 15.5632 49.1147 15.3601 49.6806 14.9537C50.2611 14.5329 50.5513 13.8799 50.5513 12.9947C50.5513 12.3417 50.3554 11.7975 49.9636 11.3621C49.5863 10.9268 48.9043 10.564 47.9175 10.2737L45.8931 9.66426C44.8773 9.35952 44.0937 8.8371 43.5422 8.097C43.0053 7.3424 42.7368 6.4064 42.7368 5.289C42.7368 4.54891 42.9037 3.85961 43.2375 3.2211C43.5857 2.58258 44.1082 2.06742 44.8047 1.67561C45.5158 1.28379 46.4083 1.08789 47.4821 1.08789C48.6576 1.08789 49.6081 1.30556 50.3337 1.74091C51.0592 2.16175 51.5671 2.71319 51.8574 3.39524C52.1476 4.07728 52.2202 4.81012 52.075 5.59375L49.5718 6.05086C49.804 4.70128 49.7024 3.6637 49.267 2.93812C48.8462 2.21254 48.1569 1.84975 47.1991 1.84975C46.459 1.84975 45.8641 2.06742 45.4142 2.50277C44.9789 2.93812 44.7612 3.56212 44.7612 4.37477C44.7612 5.04231 44.9498 5.63003 45.3271 6.13793C45.719 6.64584 46.3575 7.03765 47.2427 7.31338L49.267 7.92286C50.3699 8.24212 51.1971 8.72826 51.7485 9.38128C52.3 10.0198 52.5757 10.9123 52.5757 12.0587C52.5757 12.8713 52.3871 13.6042 52.0097 14.2572C51.647 14.8957 51.0883 15.4036 50.3337 15.7809C49.5936 16.1437 48.6648 16.3251 47.5474 16.3251C46.7348 16.3251 45.9657 16.209 45.2401 15.9768C44.5145 15.7301 43.905 15.331 43.4116 14.7796C42.9327 14.2282 42.628 13.4808 42.4974 12.5376L43.9558 12.0151C44.0284 12.9439 44.2315 13.6695 44.5653 14.1919C44.9136 14.6998 45.3417 15.0553 45.8496 15.2585C46.372 15.4617 46.9307 15.5632 47.5257 15.5632ZM62.0124 13.8436C61.8237 14.7288 61.461 15.3673 60.924 15.7591C60.4016 16.1364 59.7631 16.3251 59.0085 16.3251C58.2394 16.3251 57.6081 16.1582 57.1147 15.8244C56.6213 15.4762 56.2585 15.019 56.0263 14.4531C55.7942 13.8871 55.6781 13.2849 55.6781 12.6464V6.89979C55.6781 6.4064 55.6563 6.11617 55.6128 6.0291C55.5692 5.92751 55.4314 5.86221 55.1992 5.83319L54.002 5.68082V5.07133H55.6781V2.54631L58.1813 2.04565V5.07133H61.6641V5.83319H58.1813V13.0817C58.1813 14.0105 58.2974 14.6563 58.5296 15.019C58.7618 15.3673 59.0593 15.5415 59.4221 15.5415C59.7994 15.5415 60.0896 15.3964 60.2928 15.1061C60.5104 14.8159 60.6483 14.2862 60.7063 13.5171L62.0124 13.8436ZM73.9525 15.5632C73.7203 15.7809 73.4374 15.9623 73.1036 16.1074C72.7843 16.2525 72.3925 16.3251 71.9281 16.3251C71.3332 16.3251 70.8325 16.1945 70.4262 15.9333C70.0344 15.6721 69.7732 15.302 69.6426 14.8231C69.1637 15.3456 68.634 15.7301 68.0535 15.9768C67.4876 16.209 66.9071 16.3251 66.3121 16.3251C65.3108 16.3251 64.5635 16.0494 64.0701 15.4979C63.5767 14.932 63.33 14.2282 63.33 13.3865C63.33 12.5303 63.642 11.841 64.266 11.3186C64.89 10.7817 65.9929 10.5132 67.5747 10.5132H69.5555V8.75003C69.5555 7.54556 69.3959 6.72565 69.0766 6.29031C68.7719 5.84045 68.3438 5.61551 67.7923 5.61551C67.4295 5.61551 67.0958 5.70984 66.791 5.89849C66.4863 6.07263 66.2686 6.4064 66.138 6.89979C66.0219 7.37868 66.0437 8.07524 66.2033 8.98947L63.8089 8.64119C63.6928 7.97365 63.7654 7.35691 64.0266 6.79096C64.3023 6.21049 64.7594 5.74612 65.3979 5.39784C66.0364 5.03505 66.8491 4.85365 67.8359 4.85365C68.9533 4.85365 69.8167 5.03505 70.4262 5.39784C71.0357 5.76063 71.4565 6.23952 71.6887 6.83449C71.9354 7.42947 72.0588 8.06798 72.0588 8.75003V13.7783C72.0588 14.5184 72.1241 14.9828 72.2547 15.1714C72.3853 15.3601 72.5304 15.4544 72.69 15.4544C72.9512 15.4544 73.2414 15.302 73.5607 14.9973L73.9525 15.5632ZM67.2699 15.1714C67.6472 15.1714 68.0173 15.0771 68.3801 14.8884C68.7574 14.6853 69.1492 14.3152 69.5555 13.7783V11.275H67.9229C67.2119 11.275 66.6967 11.4419 66.3774 11.7757C66.0582 12.1095 65.8986 12.6319 65.8986 13.343C65.8986 13.9234 66.0147 14.3733 66.2468 14.6925C66.479 15.0118 66.8201 15.1714 67.2699 15.1714ZM79.8935 17.1958C79.5597 18.11 79.1897 18.8429 78.7834 19.3943C78.3915 19.9457 77.9054 20.3448 77.3249 20.5915C76.7445 20.8382 76.0189 20.9616 75.1482 20.9616V18.5671C76.0334 18.5671 76.7445 18.5018 77.2814 18.3712C77.8328 18.2551 78.2537 18.0592 78.5439 17.7835C78.8487 17.5223 79.0736 17.1813 79.2187 16.7604L79.4364 16.1074H78.3045L75.2135 6.89979C75.1119 6.56603 75.0248 6.33384 74.9523 6.20324C74.8942 6.05812 74.8217 5.96379 74.7346 5.92026C74.6621 5.87672 74.546 5.8477 74.3863 5.83319L73.1891 5.68082V5.07133H79.0663V5.68082L77.8691 5.83319C77.695 5.8477 77.5861 5.90575 77.5426 6.00733C77.5136 6.0944 77.5789 6.39189 77.7385 6.89979L80.1112 14.083L82.5709 6.81272C82.7305 6.34835 82.7958 6.07989 82.7668 6.00733C82.7523 5.92026 82.6362 5.86221 82.4185 5.83319L81.2213 5.68082V5.07133H85.3789V5.68082L84.1817 5.83319C83.964 5.86221 83.8189 5.92026 83.7463 6.00733C83.6738 6.0944 83.5577 6.36286 83.3981 6.81272L79.8935 17.1958Z"
    fill="currentColor" />
</svg>