<svg xmlns="http://www.w3.org/2000/svg" viewBox="0 0 109 17"
  fill="currentColor">
  <path
    d="M108.657 14.1488C108.846 14.3085 108.94 14.4899 108.94 14.693C108.94 14.8672 108.86 15.0776 108.7 15.3243C108.396 15.7596 107.968 16.1079 107.416 16.3691C106.865 16.6158 106.277 16.7392 105.653 16.7392C104.623 16.7392 103.81 16.4489 103.215 15.8685C102.635 15.2735 102.344 14.4608 102.344 13.4305V7.488H101.256C100.922 7.488 100.661 7.41544 100.472 7.27033C100.298 7.12521 100.211 6.92205 100.211 6.66084C100.211 6.41414 100.298 6.21823 100.472 6.07312C100.661 5.928 100.922 5.85544 101.256 5.85544H102.344V2.28558C102.344 1.96633 102.431 1.71963 102.606 1.54549C102.794 1.35684 103.048 1.26251 103.367 1.26251C103.687 1.26251 103.926 1.34958 104.086 1.52372C104.26 1.69786 104.347 1.95181 104.347 2.28558V5.85544H107.024C107.358 5.85544 107.612 5.928 107.786 6.07312C107.975 6.20372 108.069 6.39963 108.069 6.66084C108.069 6.92205 107.975 7.12521 107.786 7.27033C107.612 7.41544 107.358 7.488 107.024 7.488H104.347V13.6047C104.347 14.069 104.47 14.4318 104.717 14.693C104.964 14.9397 105.312 15.0631 105.762 15.0631C106.081 15.0631 106.364 15.0123 106.611 14.9107C106.857 14.7946 107.104 14.606 107.351 14.3447C107.627 14.069 107.881 13.9312 108.113 13.9312C108.316 13.9312 108.497 14.0037 108.657 14.1488Z"
  />
  <path
    d="M88.5154 16.7392C88.1962 16.7392 87.9495 16.6521 87.7753 16.478C87.6157 16.2893 87.5359 16.0353 87.5359 15.7161V6.66084C87.5359 5.97879 87.8624 5.63777 88.5154 5.63777C88.8202 5.63777 89.0596 5.73209 89.2337 5.92074C89.4079 6.09488 89.495 6.34158 89.495 6.66084V7.72744C90.5688 6.33433 92.0272 5.63777 93.8702 5.63777C95.2633 5.63777 96.3372 6.04409 97.0918 6.85674C97.8609 7.65488 98.2455 8.78679 98.2455 10.2525V15.7161C98.2455 16.0353 98.1511 16.2893 97.9625 16.478C97.7884 16.6521 97.5489 16.7392 97.2442 16.7392C96.9249 16.7392 96.6782 16.6521 96.5041 16.478C96.3299 16.2893 96.2429 16.0353 96.2429 15.7161V10.2525C96.2429 9.28019 96.0107 8.54735 95.5463 8.05395C95.0964 7.56056 94.4217 7.31386 93.5219 7.31386C92.303 7.31386 91.3307 7.67665 90.6051 8.40223C89.894 9.1133 89.5385 10.0783 89.5385 11.2973V15.7161C89.5385 16.0353 89.4442 16.2893 89.2555 16.478C89.0814 16.6521 88.8347 16.7392 88.5154 16.7392Z"
  />
  <path
    d="M79.5872 16.7392C77.7007 16.7392 76.2278 16.253 75.1684 15.2807C74.1236 14.294 73.6012 12.9299 73.6012 11.1885C73.6012 9.46158 74.1163 8.10474 75.1467 7.11795C76.1915 6.13116 77.6354 5.63777 79.4784 5.63777C80.6103 5.63777 81.6116 5.81916 82.4823 6.18195C83.3675 6.53023 84.0568 7.03088 84.5502 7.68391C85.0436 8.32242 85.2903 9.05526 85.2903 9.88242C85.2903 10.5209 85.1016 11.0143 84.7243 11.3626C84.3615 11.7109 83.8391 11.885 83.1571 11.885H75.6038C75.6038 12.9008 75.9448 13.6917 76.6268 14.2577C77.3234 14.8091 78.3102 15.0848 79.5872 15.0848C80.3418 15.0848 80.9948 15.005 81.5463 14.8454C82.1122 14.6858 82.6419 14.4246 83.1353 14.0618C83.4981 13.8151 83.7738 13.6917 83.9625 13.6917C84.1366 13.6917 84.2962 13.7643 84.4414 13.9094C84.6445 14.1126 84.7461 14.323 84.7461 14.5407C84.7461 14.7583 84.6445 14.9615 84.4414 15.1501C83.2514 16.2095 81.6334 16.7392 79.5872 16.7392ZM82.5476 10.3613C82.8088 10.3613 82.9974 10.3105 83.1135 10.2089C83.2296 10.1073 83.2877 9.92595 83.2877 9.66474C83.2877 8.96819 82.9321 8.40223 82.2211 7.96688C81.5245 7.51702 80.6103 7.29209 79.4784 7.29209C78.3029 7.29209 77.3669 7.56781 76.6704 8.11926C75.9883 8.6707 75.6473 9.41805 75.6473 10.3613H82.5476Z"
  />
  <path
    d="M57.1817 16.7392C56.8625 16.7392 56.6158 16.6521 56.4416 16.478C56.2675 16.2893 56.1804 16.0353 56.1804 15.7161V6.66084C56.1804 6.34158 56.2675 6.09488 56.4416 5.92074C56.6158 5.73209 56.8625 5.63777 57.1817 5.63777C57.501 5.63777 57.7477 5.73209 57.9218 5.92074C58.1105 6.09488 58.2048 6.34158 58.2048 6.66084V7.66214C58.5676 7.02363 59.0392 6.53023 59.6197 6.18195C60.2001 5.81916 60.8169 5.63777 61.4699 5.63777C62.1374 5.63777 62.7251 5.81916 63.2331 6.18195C63.741 6.53023 64.1183 7.02363 64.365 7.66214C65.4243 6.31256 66.6215 5.63777 67.9566 5.63777C69.103 5.63777 69.9737 6.00782 70.5687 6.74791C71.1782 7.488 71.4829 8.56186 71.4829 9.96949V15.7161C71.4829 16.0353 71.3886 16.2893 71.1999 16.478C71.0258 16.6521 70.7864 16.7392 70.4816 16.7392C70.1624 16.7392 69.9157 16.6521 69.7415 16.478C69.5674 16.3038 69.4803 16.0499 69.4803 15.7161V9.88242C69.4803 9.02623 69.3352 8.38772 69.045 7.96688C68.7547 7.53154 68.2758 7.31386 67.6083 7.31386C66.4474 7.31386 65.5694 7.97414 64.9745 9.2947V15.7161C64.9745 16.0353 64.8801 16.2893 64.6915 16.478C64.5173 16.6521 64.2706 16.7392 63.9514 16.7392C63.6321 16.7392 63.3854 16.6521 63.2113 16.478C63.0517 16.3038 62.9718 16.0499 62.9718 15.7161V10.2525C62.9718 9.2947 62.8122 8.56912 62.493 8.07572C62.1737 7.56781 61.7093 7.31386 61.0998 7.31386C60.2437 7.31386 59.5471 7.65488 59.0102 8.33693C58.4732 9.00447 58.2048 9.87516 58.2048 10.949V15.7161C58.2048 16.0353 58.1105 16.2893 57.9218 16.478C57.7477 16.6521 57.501 16.7392 57.1817 16.7392Z"
  />
  <path
    d="M44.4926 16.7392C44.1734 16.7392 43.9267 16.6521 43.7526 16.478C43.5784 16.2893 43.4913 16.0353 43.4913 15.7161V1.02307C43.4913 0.703815 43.5784 0.457117 43.7526 0.282977C43.9267 0.0943258 44.1734 0 44.4926 0C44.7974 0 45.0368 0.0943258 45.211 0.282977C45.3996 0.457117 45.494 0.703815 45.494 1.02307V10.4048L52.4378 5.79014C52.6264 5.65954 52.8296 5.59423 53.0473 5.59423C53.3375 5.59423 53.5552 5.72484 53.7003 5.98605C53.7873 6.16019 53.8309 6.31981 53.8309 6.46493C53.8309 6.75516 53.6785 7.00186 53.3738 7.20502L49.6515 9.64298C50.9286 10.4701 51.9008 11.3699 52.5684 12.3421C53.2359 13.2999 53.6858 14.4246 53.918 15.7161C53.9615 16.0063 53.9034 16.253 53.7438 16.4562C53.5842 16.6448 53.352 16.7392 53.0473 16.7392C52.7715 16.7392 52.5393 16.6739 52.3507 16.5433C52.1766 16.4272 52.0605 16.253 52.0024 16.0208C51.6832 14.6858 51.2478 13.6409 50.6964 12.8863C50.1449 12.1172 49.2742 11.3699 48.0843 10.6443L45.494 12.4074V15.7161C45.494 16.0353 45.4069 16.2893 45.2327 16.478C45.0586 16.6521 44.8119 16.7392 44.4926 16.7392Z"
  />
  <path
    d="M35.0573 16.7392C33.7948 16.7392 32.6992 16.4925 31.7704 15.9991C30.8417 15.5057 30.1306 14.8381 29.6372 13.9965C29.1583 13.1548 28.9189 12.2188 28.9189 11.1885C28.9189 10.1581 29.1583 9.22214 29.6372 8.38047C30.1306 7.53879 30.8417 6.87126 31.7704 6.37786C32.6992 5.88447 33.7948 5.63777 35.0573 5.63777C36.3198 5.63777 37.4082 5.88447 38.3224 6.37786C39.2512 6.87126 39.955 7.53879 40.4339 8.38047C40.9273 9.22214 41.174 10.1581 41.174 11.1885C41.174 12.2188 40.9273 13.1548 40.4339 13.9965C39.955 14.8381 39.2512 15.5057 38.3224 15.9991C37.4082 16.4925 36.3198 16.7392 35.0573 16.7392ZM35.0573 15.0631C36.3053 15.0631 37.2994 14.722 38.0395 14.04C38.7795 13.358 39.1496 12.4074 39.1496 11.1885C39.1496 9.96949 38.7795 9.01898 38.0395 8.33693C37.2994 7.65488 36.3053 7.31386 35.0573 7.31386C33.8093 7.31386 32.808 7.65488 32.0534 8.33693C31.3133 9.01898 30.9433 9.96949 30.9433 11.1885C30.9433 12.4074 31.3133 13.358 32.0534 14.04C32.808 14.722 33.8093 15.0631 35.0573 15.0631Z"
  />
  <path
    d="M21.5164 16.7392C20.2539 16.7392 19.1583 16.4925 18.2296 15.9991C17.3008 15.5057 16.5897 14.8381 16.0963 13.9965C15.6175 13.1548 15.378 12.2188 15.378 11.1885C15.378 10.1581 15.6175 9.22214 16.0963 8.38047C16.5897 7.53879 17.3008 6.87126 18.2296 6.37786C19.1583 5.88447 20.2539 5.63777 21.5164 5.63777C22.7789 5.63777 23.8673 5.88447 24.7816 6.37786C25.7103 6.87126 26.4141 7.53879 26.893 8.38047C27.3864 9.22214 27.6331 10.1581 27.6331 11.1885C27.6331 12.2188 27.3864 13.1548 26.893 13.9965C26.4141 14.8381 25.7103 15.5057 24.7816 15.9991C23.8673 16.4925 22.7789 16.7392 21.5164 16.7392ZM21.5164 15.0631C22.7644 15.0631 23.7585 14.722 24.4986 14.04C25.2387 13.358 25.6087 12.4074 25.6087 11.1885C25.6087 9.96949 25.2387 9.01898 24.4986 8.33693C23.7585 7.65488 22.7644 7.31386 21.5164 7.31386C20.2684 7.31386 19.2671 7.65488 18.5125 8.33693C17.7724 9.01898 17.4024 9.96949 17.4024 11.1885C17.4024 12.4074 17.7724 13.358 18.5125 14.04C19.2671 14.722 20.2684 15.0631 21.5164 15.0631Z"
  />
  <path
    d="M1.02307 16.7392C0.703814 16.7392 0.449861 16.6521 0.261209 16.478C0.0870698 16.2893 0 16.0353 0 15.7161V7.07442C0 5.84093 0.261209 4.77433 0.783628 3.87461C1.30605 2.97488 2.0534 2.28558 3.02567 1.8067C4.01246 1.3133 5.1734 1.06661 6.50846 1.06661C7.84353 1.06661 8.99721 1.3133 9.96949 1.8067C10.9563 2.28558 11.7109 2.97488 12.2333 3.87461C12.7557 4.77433 13.0169 5.84093 13.0169 7.07442V15.7161C13.0169 16.0353 12.9226 16.2893 12.734 16.478C12.5598 16.6521 12.3131 16.7392 11.9939 16.7392C11.6746 16.7392 11.4207 16.6521 11.232 16.478C11.0433 16.2893 10.949 16.0353 10.949 15.7161V7.00912C10.949 5.65954 10.5572 4.6147 9.77358 3.87461C9.00446 3.13451 7.91609 2.76447 6.50846 2.76447C5.11535 2.76447 4.02698 3.14177 3.24335 3.89637C2.45972 4.63647 2.06791 5.67405 2.06791 7.00912V15.7161C2.06791 16.0353 1.97358 16.2893 1.78493 16.478C1.59628 16.6521 1.34233 16.7392 1.02307 16.7392Z"
  />
</svg>