<svg xmlns="http://www.w3.org/2000/svg" viewBox="0 0 24 24" fill="currentColor">
  <path
    d="M3 21H21V10.5H3V21ZM6.75 14.25C6.75 13.3236 7.3236 12.75 8.25 12.75H15.75C16.6764 12.75 17.25 13.3236 17.25 14.25V15.75C17.25 16.6764 16.6764 17.25 15.75 17.25H8.25C7.3236 17.25 6.75 16.6764 6.75 15.75V14.25ZM3 3V9H21V3H3ZM6 7.1256C5.8522 7.12576 5.70581 7.09674 5.56925 7.04022C5.43268 6.98369 5.30861 6.90077 5.20415 6.7962C5.09969 6.69163 5.0169 6.56747 4.96052 6.43085C4.90414 6.29422 4.87528 6.1478 4.8756 6C4.8756 5.70163 4.99413 5.41548 5.2051 5.2045C5.41608 4.99353 5.70223 4.875 6.0006 4.875C6.29897 4.875 6.58512 4.99353 6.7961 5.2045C7.00707 5.41548 7.1256 5.70163 7.1256 6C7.12592 6.1479 7.09702 6.29442 7.04056 6.43112C6.98411 6.56783 6.90121 6.69204 6.79663 6.79663C6.69204 6.90121 6.56783 6.98411 6.43112 7.04056C6.29442 7.09702 6.1479 7.12592 6 7.1256ZM14.25 7.1256H9.75V4.8756H14.25V7.1256ZM18 7.1256C17.8522 7.12576 17.7058 7.09674 17.5692 7.04022C17.4327 6.98369 17.3086 6.90077 17.2042 6.7962C17.0997 6.69163 17.0169 6.56747 16.9605 6.43085C16.9041 6.29422 16.8753 6.1478 16.8756 6C16.8756 5.70163 16.9941 5.41548 17.2051 5.2045C17.4161 4.99353 17.7022 4.875 18.0006 4.875C18.299 4.875 18.5851 4.99353 18.7961 5.2045C19.0071 5.41548 19.1256 5.70163 19.1256 6C19.1259 6.1479 19.097 6.29442 19.0406 6.43112C18.9841 6.56783 18.9012 6.69204 18.7966 6.79663C18.692 6.90121 18.5678 6.98411 18.4311 7.04056C18.2944 7.09702 18.1479 7.12592 18 7.1256Z"
  />
</svg>