<svg xmlns="http://www.w3.org/2000/svg" viewBox="0 0 24 24" fill="currentColor">
  <path
    d="M19.5006 17.6256L22.8762 16.5L18.8898 4.5372C18.5474 3.5124 17.8362 3 16.7562 3H15.7506C15.7506 3 14.8878 1.5 12.0006 1.5C9.1134 1.5 8.2506 3 8.2506 3H7.245C6.1634 3 5.4522 3.5124 5.1114 4.5372L1.125 16.5L4.5006 17.6256L6.7506 10.8744L7.2786 15.0936L5.625 20.0508L7.875 20.8008C9.6306 21.3864 11.0862 20.6592 11.6706 18.9048L12.0006 17.9136L12.3306 18.9036C12.915 20.6592 14.3706 21.3864 16.125 20.8008L18.3762 20.0508L16.7214 15.0948L17.2506 10.8744L19.5006 17.6256ZM12.0006 3.7488C13.1814 3.7488 13.8762 4.1952 14.2506 4.566V4.7616C14.2506 5.1216 14.2098 5.3688 14.097 5.7096L12.0006 12L9.9042 5.712C9.79786 5.40702 9.74587 5.08575 9.7506 4.7628V4.5672C10.1262 4.1952 10.8186 3.7488 12.0006 3.7488Z"
  />
</svg>