<svg xmlns="http://www.w3.org/2000/svg" viewBox="0 0 24 24" fill="currentColor">
  <path
    d="M12 15C13.2 15 14.2872 15.4872 15.0756 16.2756L12 19.35L8.9256 16.2756C9.32824 15.8702 9.80729 15.5488 10.335 15.3298C10.8627 15.1109 11.4287 14.9988 12 15ZM5.2128 12.5628L7.3344 14.6856C7.94641 14.072 8.67367 13.5855 9.47436 13.2539C10.275 12.9224 11.1334 12.7523 12 12.7536C13.8228 12.7536 15.4728 13.4928 16.6644 14.6856L18.7884 12.5616C17.8976 11.6693 16.8394 10.9617 15.6745 10.4795C14.5095 9.99718 13.2608 9.7497 12 9.75121C9.348 9.75121 6.948 10.8276 5.2128 12.564M12 4.50001C7.9008 4.50001 4.188 6.16081 1.5 8.85001L3.6228 10.9728C4.72178 9.87132 6.02763 8.99789 7.46528 8.40273C8.90293 7.80757 10.444 7.50242 12 7.50481C13.5559 7.50307 15.0968 7.80853 16.5343 8.40365C17.9719 8.99877 19.2778 9.87185 20.3772 10.9728L22.5 8.85001C21.1225 7.46916 19.4859 6.37404 17.684 5.62754C15.882 4.88104 13.9504 4.49786 12 4.50001Z"
  />
</svg>