<svg width="512" height="512" viewBox="0 0 512 512" fill="none" xmlns="http://www.w3.org/2000/svg">
<path d="M115.573 456.608C107.4 456.608 100.899 454.379 96.0698 449.921C91.6118 445.092 89.3828 438.59 89.3828 430.418V209.191C89.3828 177.613 96.0698 150.308 109.444 127.275C122.818 104.243 141.95 86.5964 166.84 74.337C192.102 61.7061 221.822 55.3906 256 55.3906C290.177 55.3906 319.711 61.7061 344.602 74.337C369.864 86.5964 389.181 104.243 402.555 127.275C415.929 150.308 422.616 177.613 422.616 209.191V430.418C422.616 438.59 420.202 445.092 415.372 449.921C410.914 454.379 404.599 456.608 396.426 456.608C388.253 456.608 381.751 454.379 376.922 449.921C372.093 445.092 369.678 438.59 369.678 430.418V207.519C369.678 172.97 359.647 146.222 339.587 127.275C319.897 108.329 292.035 98.8559 256 98.8559C220.336 98.8559 192.473 108.515 172.413 127.833C152.352 146.779 142.321 173.341 142.321 207.519V430.418C142.321 438.59 139.906 445.092 135.077 449.921C130.248 454.379 123.746 456.608 115.573 456.608Z" fill="#3C2F2F"/>
</svg>
