<svg xmlns="http://www.w3.org/2000/svg" width="321" height="390" viewBox="0 0 321 390" fill="none">
  <path
    d="M0 0H167.917C167.917 0 194.959 4.59706 211.25 10.8333C224.502 15.9065 232.293 18.7109 243.75 27.0833C259.496 38.5901 268.304 47.1897 276.25 65C278.975 71.1089 280.193 74.725 281.667 81.25C284.928 95.6937 284.653 104.663 281.667 119.167C277.851 137.698 260 162.5 260 162.5C260 162.5 235.626 157.11 216.667 154.375C203.931 152.538 178.75 151.667 178.75 151.667C178.75 151.667 191.897 129.558 195 113.75C197.852 99.2198 200.119 89.7277 195 75.8333C190.317 63.1237 184.19 56.8484 173.333 48.75C165.75 43.0939 160.576 41.0984 151.667 37.9167C135.606 32.1806 108.333 32.5 108.333 32.5V167.917C108.333 167.917 164.912 162.205 200.417 167.917C224.229 171.748 238.428 173.381 260 184.167C273.644 190.988 281.946 194.82 292.5 205.833C304.3 218.146 308.937 227.517 314.167 243.75C321.95 267.911 321.998 284.604 314.167 308.75C308.01 327.733 301.194 337.972 287.083 352.083C272.972 366.194 262.275 371.746 243.75 379.167C237.54 381.654 233.973 382.895 227.5 384.583C202.938 390.991 162.5 384.583 162.5 384.583C162.5 384.583 138.017 377.226 124.583 368.333C109.616 358.426 101.267 351.255 92.0833 335.833C86.2549 326.046 81.25 308.75 81.25 308.75C81.25 308.75 72.7378 273.948 81.25 254.583C86.7004 242.184 91.5449 234.858 102.917 227.5C106.888 224.93 109.29 223.658 113.75 222.083C125.718 217.859 134.226 218.019 146.25 222.083C159.082 226.421 167.206 231.67 173.333 243.75C180.032 256.956 179.595 268.248 173.333 281.667C168.273 292.51 162.665 298.62 151.667 303.333C140.001 308.333 131.003 307.915 119.167 303.333C112.054 300.58 102.917 292.5 102.917 292.5C102.917 292.5 108.958 315.144 119.167 325C124.654 330.298 128.536 332.543 135.417 335.833C156.408 345.873 174.388 346.63 195 335.833C208.25 328.893 214.388 321.576 222.083 308.75C224.517 304.694 225.776 302.321 227.5 297.917C234.437 280.188 233.622 267.193 227.5 249.167C222.595 234.723 217.365 226.652 205.833 216.667C195.106 207.378 187.023 204.15 173.333 200.417C154.966 195.407 142.91 195.262 124.583 200.417C108.166 205.034 98.3425 209.652 86.6667 222.083C78.2222 231.074 74.9375 237.691 70.4167 249.167C60.3375 274.752 61.6396 293.522 70.4167 319.583C76.7861 338.496 97.5 362.917 97.5 362.917L124.583 390H0C0 390 7.57302 386.039 10.8333 381.875C14.3448 377.39 16.25 368.333 16.25 368.333V16.25C16.25 16.25 14.0063 8.58968 10.8333 5.41667C7.66032 2.24366 0 0 0 0Z"
    fill="#141414" />
</svg>