<svg xmlns="http://www.w3.org/2000/svg" viewBox="0 0 24 24" fill="currentColor">
  <path
    d="M7.68645 9H3.74925V6.75H7.68645C9.15285 6.75 9.74925 6.1536 9.74925 4.6872V3H11.9992V4.6872C11.9992 7.3872 10.3864 9 7.68645 9ZM14.6248 14.25H3.74805V16.5H14.6236C15.4636 16.5 15.748 16.7856 15.748 17.6256C15.748 18.4656 15.4624 18.75 14.6236 18.75H12.748V21H14.6236C16.7044 21 17.998 19.7064 17.998 17.6256C17.998 15.5436 16.7056 14.25 14.6248 14.25ZM16.8724 4.5C14.4052 4.5 12.748 6.1572 12.748 8.6256V9H14.9992V8.6256C14.9992 7.3992 15.6472 6.75 16.8748 6.75C18.1 6.75 18.7492 7.398 18.7492 8.6256C18.7492 9.8508 18.1012 10.5 16.8748 10.5H3.74805V12.75H16.8736C19.3408 12.75 20.998 11.0928 20.998 8.6256C20.998 6.1584 19.342 4.5 16.8748 4.5" />
</svg>