<svg xmlns="http://www.w3.org/2000/svg" viewBox="0 0 24 24" fill="currnetColor">
  <path
    d="M22.5 14.25H21V18C21 19.8528 19.8528 21 18 21V23.25H15.75V21H9.75V23.25H7.5V20.8572C6.2844 20.5608 5.4 19.8 4.7556 18.5136L2.6256 14.25H1.5V12H18.75V3.9972C18.75 3.3072 18.4428 3 17.7528 3C17.4228 3 17.2848 3.0564 17.0472 3.2928L15.75 4.59V6.8772C15.75 7.3236 15.6264 7.6236 15.3108 7.9392L14.25 9L9.75 4.5L10.8108 3.4392C11.1264 3.1236 11.4264 3 11.8728 3H14.16L15.4572 1.7028C16.1136 1.0464 16.8228 0.75 17.7528 0.75C19.6956 0.75 21 2.0556 21 3.9972V12H22.5V14.25Z"
  />
</svg>