<svg xmlns="http://www.w3.org/2000/svg" viewBox="0 0 24 24" fill="currentColor">
  <path
    d="M17.9964 6L12.75 9.4992V2.25C11.5723 2.24951 10.411 2.52648 9.36022 3.05846C8.30947 3.59045 7.39882 4.36248 6.70207 5.31202C6.00532 6.26155 5.54206 7.36187 5.34982 8.52382C5.15759 9.68577 5.24179 10.8767 5.5956 12H3C3 16.968 7.032 21 12 21C16.968 21 21 16.968 21 12C21 9.5436 19.8192 7.368 17.9964 6ZM12 18.75C11.2044 18.75 10.4413 18.4339 9.87868 17.8713C9.31607 17.3087 9 16.5457 9 15.75C9 14.9544 9.31607 14.1913 9.87868 13.6287C10.4413 13.0661 11.2044 12.75 12 12.75V15.75L14.4972 14.0856C14.7985 14.5375 14.9715 15.0627 14.9978 15.6052C15.024 16.1477 14.9024 16.6871 14.6461 17.166C14.3897 17.6448 14.0082 18.0451 13.5422 18.324C13.0761 18.603 12.5431 18.7502 12 18.75Z"
  />
</svg>