<svg xmlns="http://www.w3.org/2000/svg" viewBox="0 0 24 24" fill="currentColor">
  <g clip-path="url(#clip0_783_9094)">
    <path fill-rule="evenodd" clip-rule="evenodd"
      d="M6.00088 0.813477C6.88499 0.813486 7.73405 1.16012 8.36513 1.7793C8.99615 2.39853 9.35909 3.24107 9.37588 4.125L9.3749 13.9795C9.96167 14.4723 10.4337 15.0878 10.7577 15.7822C11.0817 16.4766 11.2492 17.2338 11.2499 18C11.2506 18.8832 11.0287 19.7527 10.6044 20.5273C10.1801 21.3017 9.56757 21.9568 8.82314 22.4316C8.07856 22.9065 7.22584 23.186 6.34463 23.2441C5.46327 23.3022 4.58074 23.1368 3.78017 22.7637C2.97984 22.3905 2.28672 21.8215 1.76455 21.1094C1.24228 20.3971 0.907985 19.5642 0.792868 18.6885C0.677814 17.8129 0.785068 16.9225 1.10537 16.0996C1.4258 15.2765 1.94894 14.5469 2.62588 13.9795V4.125C2.64266 3.24107 3.0056 2.39853 3.63662 1.7793C4.26771 1.16014 5.11676 0.813477 6.00088 0.813477ZM6.00088 3C5.70251 3 5.41596 3.1191 5.20498 3.33008C4.99426 3.54093 4.87599 3.82691 4.87588 4.125V8.25H7.12588V4.125C7.12576 3.82692 7.00747 3.54093 6.79677 3.33008C6.5858 3.11911 6.29923 3.00001 6.00088 3Z"
    />
    <path fill-rule="evenodd" clip-rule="evenodd"
      d="M17.8134 7.87109L21.747 5.25C22.4466 5.77306 23.015 6.45231 23.4061 7.2334C23.7973 8.01452 24.0002 8.87642 23.9999 9.75C23.9665 11.5181 23.2406 13.2028 21.9784 14.4414C20.7162 15.6799 19.0182 16.374 17.2499 16.374C15.4815 16.3739 13.7835 15.68 12.5214 14.4414C11.2592 13.2028 10.5333 11.5181 10.4999 9.75H12.4462C12.1819 8.90755 12.12 8.01458 12.2645 7.14355C12.4092 6.27244 12.7568 5.44727 13.2792 4.73535C13.8016 4.02352 14.4839 3.44418 15.2714 3.04492C16.059 2.64566 16.9303 2.43805 17.8134 2.4375V7.87109ZM17.2499 10.3125C16.0081 10.3127 15 11.3207 14.9999 12.5625C15.0005 13.159 15.2382 13.7315 15.6601 14.1533C16.0292 14.5223 16.5133 14.7502 17.0282 14.8018L17.2499 14.8135C17.657 14.8128 18.0571 14.7017 18.4061 14.4922C18.7549 14.2827 19.0404 13.9827 19.2323 13.624C19.4243 13.2651 19.5154 12.8607 19.496 12.4541C19.4766 12.0475 19.3473 11.6535 19.122 11.3145L17.2499 12.5625V10.3125Z"
    />
  </g>
</svg>