<svg xmlns="http://www.w3.org/2000/svg" viewBox="0 0 24 24" fill="currentColor">
  <path
    d="M10.9536 13.89C10.6992 14.31 10.5 14.64 10.5 15.06C10.5 15.8208 11.1864 16.1928 11.2164 16.2072L10.5408 17.5464C9.9672 17.2608 9 16.4184 9 15.06C9 14.2236 9.372 13.608 9.672 13.1136C9.9264 12.6936 10.1244 12.3636 10.1244 11.9436C10.1244 11.2572 9.3636 10.77 9.3528 10.7664L10.14 9.4872C10.2 9.5256 11.6256 10.4136 11.6256 11.9436C11.6256 12.78 11.2536 13.3956 10.9536 13.89ZM19.5 3V21H4.5V3H19.5ZM17.25 13.5C17.2498 12.8104 17.1139 12.1276 16.8498 11.4905C16.5858 10.8535 16.1988 10.2747 15.7111 9.78719C15.2234 9.29968 14.6444 8.91302 14.0072 8.64926C13.3701 8.38551 12.6872 8.24984 11.9976 8.25C11.308 8.25016 10.6252 8.38614 9.98814 8.65018C9.3511 8.91423 8.7723 9.30116 8.28479 9.78889C7.79728 10.2766 7.41062 10.8556 7.14686 11.4928C6.88311 12.1299 6.74744 12.8128 6.7476 13.5024C6.74792 14.8951 7.30147 16.2306 8.28649 17.2152C9.27151 18.1998 10.6073 18.7527 12 18.7524C13.3927 18.7521 14.7282 18.1985 15.7128 17.2135C16.6974 16.2285 17.2503 14.8927 17.25 13.5ZM17.25 6.3756C17.2503 6.2278 17.2215 6.08138 17.1651 5.94476C17.1087 5.80813 17.0259 5.68397 16.9214 5.5794C16.817 5.47483 16.6929 5.39191 16.5564 5.33538C16.4198 5.27886 16.2734 5.24984 16.1256 5.25C15.9777 5.24968 15.8312 5.27858 15.6945 5.33504C15.5578 5.39149 15.4336 5.47439 15.329 5.57898C15.2244 5.68356 15.1415 5.80777 15.085 5.94448C15.0286 6.08118 14.9997 6.2277 15 6.3756C15 6.9972 15.5028 7.5 16.1256 7.5C16.2733 7.50016 16.4196 7.47118 16.5561 7.41473C16.6926 7.35828 16.8166 7.27546 16.921 7.17102C17.0255 7.06658 17.1083 6.94257 17.1647 6.80608C17.2212 6.66959 17.2502 6.5233 17.25 6.3756ZM15 11.94C15 10.41 13.5792 9.5208 13.5144 9.4836L12.7272 10.7628C12.7272 10.7628 13.5 11.2572 13.5 11.94C13.5 12.36 13.3008 12.69 13.0464 13.11C12.7464 13.6044 12.3744 14.22 12.3744 15.0564C12.3744 16.4136 13.3428 17.2608 13.9164 17.5428L14.5908 16.2036C14.5608 16.1892 13.8744 15.8172 13.8744 15.0564C13.8744 14.6364 14.0736 14.3064 14.3292 13.8864C14.6292 13.3908 15 12.7764 15 11.94Z"
  />
</svg>